<svg xmlns="http://www.w3.org/2000/svg" width="900" height="700" viewBox="0 0 900 700" role="img" aria-labelledby="title desc">
  <title id="title">Bengal Christian Church t-shirt</title>
  <desc id="desc">Illustrated white t-shirt with the Bengal Christian Church bell logo on the chest</desc>
  <rect width="900" height="700" fill="#f8fafc" rx="24"/>
  <rect x="90" y="520" width="720" height="120" fill="#1a202c" opacity="0.08" rx="28"/>
  <g transform="translate(220 120)">
    <path d="M140 40c36 24 76 24 112 0l90 32-30 70-52-14v320H132V128l-52 14-30-70z" fill="#e5e7eb" stroke="#cbd5e0" stroke-width="6"/>
    <rect x="160" y="140" width="120" height="120" rx="18" fill="#1e3a8a"/>
    <rect x="170" y="150" width="100" height="100" rx="14" fill="#60a5fa"/>
    <path d="M220 230c0-22 11-38 40-38s40 16 40 38" fill="none" stroke="#0f172a" stroke-width="6" stroke-linecap="round"/>
    <circle cx="260" cy="200" r="16" fill="#f97316" stroke="#0f172a" stroke-width="4"/>
    <path d="M260 182v12" stroke="#0f172a" stroke-width="4" stroke-linecap="round"/>
    <path d="M258 204h4" stroke="#0f172a" stroke-width="4" stroke-linecap="round"/>
    <path d="M236 178h48" stroke="#0f172a" stroke-width="4" stroke-linecap="round"/>
  </g>
  <text x="450" y="600" font-size="36" fill="#2d3748" text-anchor="middle" font-family="'Arial Rounded MT Bold', 'Segoe UI', Arial, sans-serif">Soft cotton tee with the bell and cross logo</text>
</svg>
